<svg width="20" height="20" viewBox="0 0 20 20" fill="none" xmlns="http://www.w3.org/2000/svg">
<g clip-path="url(#clip0_63_148)">
<path d="M14.1667 9.99996C14.1667 7.69877 12.3012 5.83329 10 5.83329C7.69885 5.83329 5.83337 7.69877 5.83337 9.99996C5.83337 12.3011 7.69885 14.1666 10 14.1666C12.3012 14.1666 14.1667 12.3011 14.1667 9.99996Z" stroke="white" stroke-width="1.33333" stroke-linecap="round" stroke-linejoin="round"/>
<path d="M0.833374 10H2.50004" stroke="white" stroke-width="1.33333" stroke-linecap="round" stroke-linejoin="round"/>
<path d="M17.5 10H19.1667" stroke="white" stroke-width="1.33333" stroke-linecap="round" stroke-linejoin="round"/>
<path d="M3.5166 16.4834L4.69993 15.3" stroke="white" stroke-width="1.33333" stroke-linecap="round" stroke-linejoin="round"/>
<path d="M15.3 4.69998L16.4834 3.51665" stroke="white" stroke-width="1.33333" stroke-linecap="round" stroke-linejoin="round"/>
<path d="M10 19.1666V17.5" stroke="white" stroke-width="1.33333" stroke-linecap="round" stroke-linejoin="round"/>
<path d="M10 2.5V0.833333" stroke="white" stroke-width="1.33333" stroke-linecap="round" stroke-linejoin="round"/>
<path d="M16.4834 16.4834L15.3 15.3" stroke="white" stroke-width="1.33333" stroke-linecap="round" stroke-linejoin="round"/>
<path d="M4.69993 4.69998L3.5166 3.51665" stroke="white" stroke-width="1.33333" stroke-linecap="round" stroke-linejoin="round"/>
</g>
<defs>
<clipPath id="clip0_63_148">
<rect width="20" height="20" fill="white" transform="matrix(0 -1 1 0 0 20)"/>
</clipPath>
</defs>
</svg>
